<mxfile host="app.diagrams.net" modified="2020-10-29T07:36:32.879Z" agent="5.0 (Macintosh; Intel Mac OS X 10_15_6) AppleWebKit/537.36 (KHTML, like Gecko) Chrome/85.0.4183.121 Safari/537.36" etag="o_mWR95ssoTecaIB2PxG" version="13.8.5" type="github">
  <diagram id="cDtQjBwZwY68ySa9HGx4" name="第 1 页">
    <mxGraphModel dx="1773" dy="645" grid="1" gridSize="10" guides="1" tooltips="1" connect="1" arrows="1" fold="1" page="1" pageScale="1" pageWidth="827" pageHeight="1169" math="0" shadow="0">
      <root>
        <mxCell id="0" />
        <mxCell id="1" parent="0" />
        <mxCell id="TuBy7tGf5mDWLc_EjJ3D-10" style="edgeStyle=orthogonalEdgeStyle;rounded=0;orthogonalLoop=1;jettySize=auto;html=1;entryX=0.5;entryY=0;entryDx=0;entryDy=0;" parent="1" source="TuBy7tGf5mDWLc_EjJ3D-1" target="TuBy7tGf5mDWLc_EjJ3D-6" edge="1">
          <mxGeometry relative="1" as="geometry" />
        </mxCell>
        <mxCell id="TuBy7tGf5mDWLc_EjJ3D-25" style="edgeStyle=orthogonalEdgeStyle;rounded=0;orthogonalLoop=1;jettySize=auto;html=1;exitX=1;exitY=0.5;exitDx=0;exitDy=0;entryX=0.5;entryY=0;entryDx=0;entryDy=0;" parent="1" source="TuBy7tGf5mDWLc_EjJ3D-1" target="TuBy7tGf5mDWLc_EjJ3D-8" edge="1">
          <mxGeometry relative="1" as="geometry" />
        </mxCell>
        <mxCell id="TuBy7tGf5mDWLc_EjJ3D-31" style="edgeStyle=orthogonalEdgeStyle;rounded=0;orthogonalLoop=1;jettySize=auto;html=1;exitX=0;exitY=0.5;exitDx=0;exitDy=0;" parent="1" source="TuBy7tGf5mDWLc_EjJ3D-1" target="TuBy7tGf5mDWLc_EjJ3D-30" edge="1">
          <mxGeometry relative="1" as="geometry" />
        </mxCell>
        <mxCell id="TuBy7tGf5mDWLc_EjJ3D-1" value="秒杀落地页" style="rounded=0;whiteSpace=wrap;html=1;" parent="1" vertex="1">
          <mxGeometry x="447" y="650" width="120" height="60" as="geometry" />
        </mxCell>
        <mxCell id="TuBy7tGf5mDWLc_EjJ3D-3" value="1、折叠的交互应该是点击不应该是下滑，下滑的话，就显得加载更多显得多余" style="shape=document;whiteSpace=wrap;html=1;boundedLbl=1;" parent="1" vertex="1">
          <mxGeometry x="157" y="360" width="270" height="210" as="geometry" />
        </mxCell>
        <mxCell id="TuBy7tGf5mDWLc_EjJ3D-4" value="Apollo配置是否折叠和折叠展示数量" style="ellipse;shape=cloud;whiteSpace=wrap;html=1;" parent="1" vertex="1">
          <mxGeometry x="747" y="490" width="120" height="80" as="geometry" />
        </mxCell>
        <mxCell id="TuBy7tGf5mDWLc_EjJ3D-5" value="" style="curved=1;endArrow=classic;html=1;exitX=0.13;exitY=0.77;exitDx=0;exitDy=0;exitPerimeter=0;" parent="1" source="TuBy7tGf5mDWLc_EjJ3D-4" edge="1">
          <mxGeometry width="50" height="50" relative="1" as="geometry">
            <mxPoint x="527" y="650" as="sourcePoint" />
            <mxPoint x="527" y="650" as="targetPoint" />
            <Array as="points">
              <mxPoint x="697" y="552" />
              <mxPoint x="527" y="600" />
            </Array>
          </mxGeometry>
        </mxCell>
        <mxCell id="TuBy7tGf5mDWLc_EjJ3D-9" style="edgeStyle=orthogonalEdgeStyle;rounded=0;orthogonalLoop=1;jettySize=auto;html=1;entryX=0;entryY=0.417;entryDx=0;entryDy=0;entryPerimeter=0;" parent="1" source="TuBy7tGf5mDWLc_EjJ3D-6" target="TuBy7tGf5mDWLc_EjJ3D-8" edge="1">
          <mxGeometry relative="1" as="geometry" />
        </mxCell>
        <mxCell id="TuBy7tGf5mDWLc_EjJ3D-17" style="edgeStyle=orthogonalEdgeStyle;rounded=0;orthogonalLoop=1;jettySize=auto;html=1;exitX=0.5;exitY=1;exitDx=0;exitDy=0;entryX=0.5;entryY=0;entryDx=0;entryDy=0;" parent="1" source="TuBy7tGf5mDWLc_EjJ3D-6" target="TuBy7tGf5mDWLc_EjJ3D-14" edge="1">
          <mxGeometry relative="1" as="geometry" />
        </mxCell>
        <mxCell id="TuBy7tGf5mDWLc_EjJ3D-6" value="onLoad里面拿到秒杀的折叠配置信息" style="rounded=1;whiteSpace=wrap;html=1;" parent="1" vertex="1">
          <mxGeometry x="447" y="790" width="120" height="60" as="geometry" />
        </mxCell>
        <mxCell id="TuBy7tGf5mDWLc_EjJ3D-26" style="edgeStyle=orthogonalEdgeStyle;rounded=0;orthogonalLoop=1;jettySize=auto;html=1;exitX=0.5;exitY=1;exitDx=0;exitDy=0;entryX=1;entryY=0.25;entryDx=0;entryDy=0;" parent="1" source="TuBy7tGf5mDWLc_EjJ3D-8" target="TuBy7tGf5mDWLc_EjJ3D-14" edge="1">
          <mxGeometry relative="1" as="geometry" />
        </mxCell>
        <mxCell id="TuBy7tGf5mDWLc_EjJ3D-8" value="data里面配置折叠信息" style="shape=parallelogram;html=1;strokeWidth=2;perimeter=parallelogramPerimeter;whiteSpace=wrap;rounded=1;arcSize=12;size=0.23;" parent="1" vertex="1">
          <mxGeometry x="727" y="795" width="100" height="60" as="geometry" />
        </mxCell>
        <mxCell id="TuBy7tGf5mDWLc_EjJ3D-24" style="edgeStyle=orthogonalEdgeStyle;rounded=0;orthogonalLoop=1;jettySize=auto;html=1;exitX=1;exitY=0.5;exitDx=0;exitDy=0;entryX=1;entryY=0.5;entryDx=0;entryDy=0;" parent="1" source="TuBy7tGf5mDWLc_EjJ3D-14" target="TuBy7tGf5mDWLc_EjJ3D-28" edge="1">
          <mxGeometry relative="1" as="geometry">
            <mxPoint x="627" y="1142" as="targetPoint" />
          </mxGeometry>
        </mxCell>
        <mxCell id="TuBy7tGf5mDWLc_EjJ3D-14" value="&lt;p style=&quot;margin: 0px ; margin-top: 4px ; text-align: center&quot;&gt;&lt;b&gt;loadActivity&lt;/b&gt;&lt;br&gt;&lt;/p&gt;&lt;hr size=&quot;1&quot;&gt;&lt;div style=&quot;height: 2px ; font-size: 9px&quot;&gt;&lt;div style=&quot;background-color: rgb(255 , 255 , 255) ; font-family: &amp;#34;menlo&amp;#34; , &amp;#34;monaco&amp;#34; , &amp;#34;courier new&amp;#34; , monospace ; line-height: 24px&quot;&gt;&lt;div&gt;.&lt;span style=&quot;color: #795e26&quot;&gt;then&lt;/span&gt;(&lt;span style=&quot;color: #001080&quot;&gt;response&lt;/span&gt; &lt;span style=&quot;color: #0000ff&quot;&gt;=&amp;gt;&lt;/span&gt; {&lt;/div&gt;&lt;div&gt;        &lt;span style=&quot;color: #0000ff&quot;&gt;this&lt;/span&gt;.&lt;span style=&quot;color: #795e26&quot;&gt;loadActivityGoodsList&lt;/span&gt;(&lt;span style=&quot;color: #0000ff&quot;&gt;true&lt;/span&gt;);&lt;/div&gt;&lt;div&gt;      });&lt;/div&gt;&lt;div&gt;在这里面判断折叠加载数量，如果不够30个就再自动加载一次&lt;/div&gt;&lt;/div&gt;&lt;/div&gt;" style="verticalAlign=top;align=left;overflow=fill;fontSize=12;fontFamily=Helvetica;html=1;" parent="1" vertex="1">
          <mxGeometry x="374.5" y="890" width="265" height="130" as="geometry" />
        </mxCell>
        <mxCell id="TuBy7tGf5mDWLc_EjJ3D-28" value="&lt;p style=&quot;margin: 0px ; margin-top: 4px ; text-align: center&quot;&gt;&lt;span style=&quot;color: rgb(121 , 94 , 38) ; font-family: &amp;#34;menlo&amp;#34; , &amp;#34;monaco&amp;#34; , &amp;#34;courier new&amp;#34; , monospace ; font-size: 13px ; background-color: rgb(255 , 255 , 255)&quot;&gt;loadActivityGoodsList&lt;/span&gt;&lt;br&gt;&lt;/p&gt;&lt;hr size=&quot;1&quot;&gt;&lt;div style=&quot;height: 2px ; font-size: 9px&quot;&gt;&lt;div style=&quot;background-color: rgb(255 , 255 , 255) ; font-family: &amp;#34;menlo&amp;#34; , &amp;#34;monaco&amp;#34; , &amp;#34;courier new&amp;#34; , monospace ; line-height: 24px&quot;&gt;&lt;span style=&quot;color: rgb(121 , 94 , 38) ; font-size: 13px ; text-align: center&quot;&gt;hasMore需要根据后端接口确定的字段&lt;/span&gt;&lt;/div&gt;&lt;div style=&quot;background-color: rgb(255 , 255 , 255) ; font-family: &amp;#34;menlo&amp;#34; , &amp;#34;monaco&amp;#34; , &amp;#34;courier new&amp;#34; , monospace ; line-height: 24px&quot;&gt;&lt;span style=&quot;color: rgb(121 , 94 , 38) ; font-size: 13px ; text-align: center&quot;&gt;来定义而不是让前端拼接好几个字段来定义&lt;/span&gt;&lt;br&gt;&lt;/div&gt;&lt;/div&gt;" style="verticalAlign=top;align=left;overflow=fill;fontSize=12;fontFamily=Helvetica;html=1;" parent="1" vertex="1">
          <mxGeometry x="367" y="1160" width="265" height="130" as="geometry" />
        </mxCell>
        <mxCell id="TuBy7tGf5mDWLc_EjJ3D-30" value="&lt;p style=&quot;margin: 0px ; margin-top: 4px ; text-align: center&quot;&gt;&lt;b&gt;changeTab&lt;/b&gt;&lt;/p&gt;&lt;hr size=&quot;1&quot;&gt;&lt;div style=&quot;height: 2px ; font-size: 9px&quot;&gt;&lt;div style=&quot;background-color: rgb(255 , 255 , 255) ; font-family: &amp;#34;menlo&amp;#34; , &amp;#34;monaco&amp;#34; , &amp;#34;courier new&amp;#34; , monospace ; line-height: 24px&quot;&gt;在这个方法里面要添加对tab页的加载更多的显示状态的逻辑判断&lt;/div&gt;&lt;/div&gt;" style="verticalAlign=top;align=left;overflow=fill;fontSize=12;fontFamily=Helvetica;html=1;" parent="1" vertex="1">
          <mxGeometry x="-3" y="1160" width="265" height="130" as="geometry" />
        </mxCell>
      </root>
    </mxGraphModel>
  </diagram>
</mxfile>
